<svg width="40" height="40" viewBox="0 0 40 40" fill="none" xmlns="http://www.w3.org/2000/svg">
<g clip-path="url(#clip0_11782_3371)">
<path d="M33.5 0C37.366 0 40.5 3.13401 40.5 7V33C40.5 36.866 37.366 40 33.5 40H6.5C2.63401 40 -0.5 36.866 -0.5 33V7C-0.5 3.13401 2.63401 1.79958e-09 6.5 0H33.5ZM23.999 8.41016C20.8898 8.41016 17.7292 9.74363 15.6963 11.8975C15.3206 11.8633 14.9446 11.8291 14.5859 11.8291C8.48725 11.8291 4.71109 16.9569 4.71094 21.709C4.72802 24.273 5.71904 26.7349 7.47852 28.6152C9.32353 30.581 11.8867 31.6924 14.5859 31.6924H23.999C30.3881 31.6922 35.5811 26.4438 35.5811 20.0166C35.5468 17.0595 34.4191 14.2216 32.4033 12.0508C30.2338 9.70924 27.1762 8.39316 23.999 8.41016ZM24.1357 10.0342C29.6194 10.0344 34.0435 14.4788 34.0605 19.9658C34.0605 22.6153 33.0359 25.1797 31.1738 27.0771C29.346 28.9915 26.8176 30.0678 24.1699 30.085C21.6587 30.085 19.0955 28.9575 17.1309 27.0088L12.6553 22.4951C12.0917 21.9139 12.1082 20.9908 12.6719 20.4268C12.9452 20.1533 13.3044 20.0166 13.6973 20.0166C14.09 20.0166 14.4659 20.1705 14.7393 20.4609L19.1982 24.9229C20.6162 26.3417 22.4274 27.1455 24.1699 27.1455C26.0318 27.1454 27.8087 26.3762 29.0898 25.0088C30.4052 23.6584 31.1396 21.8461 31.1396 19.9658C31.1396 16.1027 27.9964 12.9743 24.1357 12.957C22.6668 12.957 21.4535 13.2476 20.2578 14.085C20.2407 14.0679 19.9154 13.8628 19.5566 13.6406C19.3347 13.5039 19.0955 13.3672 18.8906 13.2646C18.6855 13.145 18.0706 12.855 17.7119 12.7012C17.6268 12.6671 17.5076 12.6159 17.4561 12.5986H17.4727C19.3177 10.8721 21.6074 10.0342 24.1357 10.0342ZM14.3633 13.624C16.362 13.624 18.3096 14.3591 19.7959 15.6924L19.8301 15.7266L23.2295 19.2139C23.7932 19.7951 23.7762 20.7181 23.1953 21.2822C22.6146 21.8459 21.6926 21.8288 21.1289 21.248L17.7803 17.7949C15.5936 15.9146 12.2962 16.1538 10.417 18.3418C9.59714 19.2819 9.15339 20.4955 9.15332 21.7432C9.15332 24.615 11.5963 27.043 14.4834 27.043H15.1494V27.0596C16.1009 28.3856 18.7591 29.999 18.7881 30.0166H14.3975C9.87046 30.0165 6.21484 26.3413 6.21484 21.8115C6.21501 17.316 9.85347 13.6584 14.3633 13.624Z" fill="#141212"/>
</g>
<defs>
<clipPath id="clip0_11782_3371">
<rect width="40" height="40" fill="white"/>
</clipPath>
</defs>
</svg>
